<?xml version="1.0" encoding="utf-8"?>
<!-- Generator: Adobe Illustrator 18.1.1, SVG Export Plug-In . SVG Version: 6.00 Build 0)  -->
<svg version="1.1" xmlns="http://www.w3.org/2000/svg" xmlns:xlink="http://www.w3.org/1999/xlink" x="0px" y="0px"
	 viewBox="0 0 960 560" enable-background="new 0 0 960 560" xml:space="preserve">
<g id="Sky">
	<linearGradient id="SVGID_1_" gradientUnits="userSpaceOnUse" x1="0" y1="280" x2="960" y2="280">
		<stop  offset="1.123600e-02" style="stop-color:#FFDC70"/>
		<stop  offset="8.705385e-02" style="stop-color:#F9C781"/>
		<stop  offset="0.1723" style="stop-color:#F4B68F"/>
		<stop  offset="0.236" style="stop-color:#F2B094"/>
		<stop  offset="0.4494" style="stop-color:#A0AEC1"/>
		<stop  offset="0.6966" style="stop-color:#98A7AD"/>
		<stop  offset="1" style="stop-color:#497692"/>
	</linearGradient>
	<rect fill="url(#SVGID_1_)" width="960" height="560"/>
</g>
<g id="Land">
	<rect y="512" fill="#3FA9F5" width="960" height="48"/>
	<path fill="#39B54A" d="M0,463.7c0,0,322.6-157.4,480,0"/>
	<path fill="#009245" d="M358.3,463.7c0,0,162.6-267,426.1,0"/>
	<path fill="#006837" d="M659.2,463.7c0,0,147.7-113,300.8,0"/>
	<line fill="#FFFFFF" x1="0" y1="512" x2="960" y2="512"/>
	<path fill="none" stroke="#2E3192" stroke-width="4" stroke-miterlimit="10" d="M75,548.4c-22.1,0-22.2-10.8-22.2-10.8
		s0.1,10.8-21.5,10.8"/>
	<rect y="463.7" fill="#7AC943" width="960" height="48.3"/>
	<path fill="none" stroke="#2E3192" stroke-width="4" stroke-miterlimit="10" d="M150,536c-22.1,0-22.2-10.8-22.2-10.8
		s0.1,10.8-21.5,10.8"/>
	<path fill="none" stroke="#2E3192" stroke-width="4" stroke-miterlimit="10" d="M254,543c-22.1,0-22.2-10.8-22.2-10.8
		s0.1,10.8-21.5,10.8"/>
	<path fill="none" stroke="#2E3192" stroke-width="4" stroke-miterlimit="10" d="M358.3,541.4c-22.1,0-22.2-10.8-22.2-10.8
		s0.1,10.8-21.5,10.8"/>
	<path fill="none" stroke="#2E3192" stroke-width="4" stroke-miterlimit="10" d="M408.9,530.6c-22.1,0-22.2-10.8-22.2-10.8
		s0.1,10.8-21.5,10.8"/>
	<path fill="none" stroke="#2E3192" stroke-width="4" stroke-miterlimit="10" d="M305.9,530.6c-22.1,0-22.2-10.8-22.2-10.8
		s0.1,10.8-21.5,10.8"/>
	<path fill="none" stroke="#2E3192" stroke-width="4" stroke-miterlimit="10" d="M602.3,551.9c-22.1,0-22.2-10.8-22.2-10.8
		s0.1,10.8-21.5,10.8"/>
	<path fill="none" stroke="#2E3192" stroke-width="4" stroke-miterlimit="10" d="M677.2,539.5c-22.1,0-22.2-10.8-22.2-10.8
		s0.1,10.8-21.5,10.8"/>
	<path fill="none" stroke="#2E3192" stroke-width="4" stroke-miterlimit="10" d="M781.2,546.5c-22.1,0-22.2-10.8-22.2-10.8
		s0.1,10.8-21.5,10.8"/>
	<path fill="none" stroke="#2E3192" stroke-width="4" stroke-miterlimit="10" d="M885.6,544.9c-22.1,0-22.2-10.8-22.2-10.8
		s0.1,10.8-21.5,10.8"/>
	<path fill="none" stroke="#2E3192" stroke-width="4" stroke-miterlimit="10" d="M936.1,534.1c-22.1,0-22.2-10.8-22.2-10.8
		s0.1,10.8-21.5,10.8"/>
	<path fill="none" stroke="#2E3192" stroke-width="4" stroke-miterlimit="10" d="M833.1,534.1c-22.1,0-22.2-10.8-22.2-10.8
		s0.1,10.8-21.5,10.8"/>
	<path fill="none" stroke="#2E3192" stroke-width="4" stroke-miterlimit="10" d="M481.1,544.9c-22.1,0-22.2-10.8-22.2-10.8
		s0.1,10.8-21.5,10.8"/>
	<path fill="none" stroke="#2E3192" stroke-width="4" stroke-miterlimit="10" d="M546.6,530.6c-22.1,0-22.2-10.8-22.2-10.8
		s0.1,10.8-21.5,10.8"/>
</g>
<g id="Arch">
	<path fill="#E5E5E4" d="M483.9,89.8c-91,0-147.2,392.2-147.2,392.2H284c0,0,85-399.8,200-399.8S684,482,684,482h-55.9
		C628.1,482,574.9,89.8,483.9,89.8z"/>
	<path fill="#CCCBCB" d="M671.3,482c0,0-83.6-398-187.8-398h0.5c-104.2,0-187.6,398-187.6,398H284c0,0,85-400.2,200-400.2
		S684,482,684,482H671.3z"/>
</g>
</svg>
